<?xml version="1.0" encoding="UTF-8" standalone="no"?>
<!-- Created with Inkscape (http://www.inkscape.org/) -->

<svg
   version="1.1"
   id="svg1"
   width="1209.2797"
   height="905.14301"
   viewBox="0 0 1209.2797 905.143"
   sodipodi:docname="logo_small.svg"
   inkscape:version="1.4.3 (0d15f75, 2025-12-25)"
   xmlns:inkscape="http://www.inkscape.org/namespaces/inkscape"
   xmlns:sodipodi="http://sodipodi.sourceforge.net/DTD/sodipodi-0.dtd"
   xmlns="http://www.w3.org/2000/svg"
   xmlns:svg="http://www.w3.org/2000/svg">
  <defs
     id="defs1" />
  <sodipodi:namedview
     id="namedview1"
     pagecolor="#ffffff"
     bordercolor="#000000"
     borderopacity="0.25"
     inkscape:showpageshadow="2"
     inkscape:pageopacity="0.0"
     inkscape:pagecheckerboard="0"
     inkscape:deskcolor="#d1d1d1"
     inkscape:zoom="0.36015973"
     inkscape:cx="605.28699"
     inkscape:cy="655.26482"
     inkscape:window-width="1512"
     inkscape:window-height="869"
     inkscape:window-x="0"
     inkscape:window-y="34"
     inkscape:window-maximized="0"
     inkscape:current-layer="svg1" />
  <path
     style="fill:#000000;stroke-width:2.62172"
     d="m 260.11716,1223.2894 v -46.8368 h 25.44941 c 38.25316,0 51.43806,8.5547 51.43806,33.3745 0,20.4577 -16.90747,31.3934 -48.58264,31.423 l -15.4415,0.016 0.75276,13.6105 c 0.72347,13.0817 0.47364,13.6423 -6.43167,14.4307 l -7.18442,0.8193 z m 57.12328,-1.3506 c 8.12329,-7.9432 8.2995,-17.2354 0.49507,-26.1075 -5.33585,-6.0656 -8.09645,-6.8844 -24.52445,-7.2738 l -18.51179,-0.4387 -0.79929,16.578 c -1.12606,23.355 -0.92043,23.6053 19.39564,23.6053 14.97842,0 18.35474,-0.8972 23.94482,-6.3633 z m 48.9284,1.1784 v -46.6646 h 25.44941 c 38.47641,0 51.43806,8.5254 51.43806,33.8326 0,8.8807 -1.65361,12.375 -9.47595,20.0237 l -9.47596,9.2659 11.02307,15.2838 11.02306,15.284 -8.83816,-0.8285 c -7.34442,-0.6885 -10.38532,-3.1288 -17.99236,-14.439 l -9.15422,-13.6105 h -15.37023 -15.37025 v 14.2586 c 0,13.4808 -0.36153,14.2587 -6.62823,14.2587 h -6.62824 z m 55.37543,0.6481 c 8.85834,-7.1915 9.93741,-19.1869 2.48783,-27.6556 -5.61797,-6.3863 -8.14972,-7.1582 -24.76935,-7.5522 l -18.5118,-0.4387 -0.77433,20.0916 -0.77437,20.0917 h 18.37686 c 13.60534,0 19.82784,-1.1779 23.96516,-4.5368 z m 72.72478,40.9781 c -19.96983,-8.8654 -31.68196,-35.198 -24.76734,-55.6849 7.21509,-21.3769 24.12756,-33.0777 48.13044,-33.2987 29.36514,-0.2705 50.0349,19.0618 50.0349,46.7975 0,7.5789 -1.68312,16.93 -3.74023,20.7804 -5.02197,9.3995 -17.11608,20.3088 -26.25941,23.6867 -11.42537,4.221 -31.07915,3.1881 -43.39836,-2.281 z m 44.41036,-13.7983 c 17.08291,-11.2568 19.99573,-34.9484 6.25939,-50.9109 -12.118,-14.0819 -33.08638,-16.2906 -49.1693,-5.1793 -9.60611,6.6368 -13.90227,18.1524 -12.21923,32.753 1.12243,9.7372 3.31131,13.8912 10.90606,20.697 8.01854,7.1854 11.51613,8.5145 22.40514,8.5145 9.01768,0 15.58783,-1.769 21.81794,-5.8743 z m 56.73416,16.5111 c -2.96704,-1.2536 -7.00922,-4.1817 -8.98261,-6.5066 -3.04983,-3.5934 -2.90425,-4.9661 0.97058,-9.1528 4.47541,-4.8356 4.65408,-4.8321 9.79647,0.1962 3.73316,3.6503 8.03329,4.8931 14.96827,4.3259 14.09281,-1.1526 16.64219,-7.7544 15.82463,-40.9793 l -0.66978,-27.2208 -17.89623,-0.7667 c -15.72179,-0.6734 -17.89622,-1.3821 -17.89622,-5.8331 0,-4.674 1.96527,-5.0664 25.37391,-5.0664 h 25.37392 l -0.84948,40.1185 c -0.78847,37.2387 -1.26636,40.5257 -6.65731,45.7905 -6.39118,6.2415 -29.54708,9.239 -39.35615,5.0946 z m 82.72399,0.5972 c -0.97215,-0.9504 -1.76753,-21.9496 -1.76753,-46.6645 v -44.9363 h 34.46678 34.46677 v 6.6758 6.6759 l -25.85002,-0.8428 -25.85014,-0.8427 -0.80138,13.6104 -0.80138,13.6106 h 24.00024 c 23.83268,0 24.00014,0.045 24.00014,6.4811 0,6.4332 -0.17681,6.4812 -23.86158,6.4812 h -23.86168 v 14.2587 14.2586 h 27.83855 27.83857 v 6.4812 6.4813 h -34.02492 c -18.71369,0 -34.82029,-0.7779 -35.79242,-1.7285 z m 122.84303,-1.177 c -8.46922,-3.2927 -20.61451,-14.5374 -25.42374,-23.5387 -9.14582,-17.1181 -1.69524,-47.6096 14.36574,-58.7923 16.40016,-11.4188 43.87763,-12.2482 60.16078,-1.8156 7.51451,4.8145 8.13553,7.3759 2.83151,11.6803 -2.92197,2.3711 -5.96692,1.8719 -13.88004,-2.275 -12.75934,-6.6868 -20.21416,-6.6896 -34.31936,-0.013 -24.3033,11.5041 -26.16613,45.7733 -3.23136,59.446 11.96051,7.1304 30.94059,7.0264 40.36329,-0.2211 6.78856,-5.2213 7.3494,-5.265 12.22591,-0.9497 6.40204,5.6653 4.75477,8.3004 -9.0105,14.4126 -11.83802,5.2564 -33.29013,6.2621 -44.08223,2.0665 z m 103.40043,-38.4021 v -41.6518 H 888.4733 c -14.14021,0 -15.90784,-0.5762 -15.90784,-5.185 0,-4.9555 1.76763,-5.1849 39.95396,-5.1849 39.64242,0 39.94722,0.044 39.10652,5.6981 -0.7741,5.2066 -2.156,5.6377 -16.02384,5 l -15.17654,-0.698 -0.73118,41.0164 -0.7313,41.0165 -7.29097,0.8202 -7.29109,0.8204 z M 183.97364,1124.5319 c -25.3203,-3.542 -49.50119,-22.4393 -56.04612,-43.7997 -4.59134,-14.9846 -3.64646,-38.8325 2.01104,-50.7548 10.65384,-22.4514 33.43899,-37.46224 60.03285,-39.54959 33.58642,-2.6362 63.20299,13.58679 75.39483,41.29879 4.88183,11.0964 5.75275,16.8255 4.71458,31.0135 -3.1242,42.6963 -38.9303,68.3913 -86.10718,61.7918 z m 38.32952,-33.1466 c 18.83693,-13.1156 21.44758,-45.5238 4.96547,-61.6403 -17.17931,-16.7982 -42.36558,-17.5356 -58.56847,-1.7147 -9.10115,8.8867 -11.98339,16.1084 -11.98339,30.0255 0,13.7589 7.23734,27.2196 18.82844,35.0187 11.67168,7.8533 34.22267,7.0386 46.75795,-1.6892 z m 587.49667,33.1773 c -34.46141,-6.8958 -56.46252,-32.8997 -56.51648,-66.7993 -0.0324,-20.2064 4.99264,-32.3809 19.23565,-46.6062 33.91141,-33.86915 97.51475,-25.49288 118.99128,15.6706 6.81311,13.0584 9.14308,35.8845 5.13955,50.3535 -9.11692,32.9521 -49.32806,54.8895 -86.85,47.3814 z m 38.01089,-31.3307 c 12.92394,-7.8103 20.35496,-23.3437 18.78944,-39.2763 -1.56615,-15.9376 -8.13342,-24.8981 -23.92526,-32.6439 -15.63944,-7.6712 -30.14312,-5.9304 -43.07243,5.1698 -21.91214,18.8125 -17.96456,55.7285 7.25919,67.8851 12.33146,5.943 30.04955,5.4521 40.94906,-1.1347 z M 42.711199,1071.5662 v -53.0369 L 22.163686,1017.7721 1.616179,1017.015 0.808083,1004.7007 0,992.38642 h 58.473689 58.473691 v 12.96238 12.9624 H 95.737039 74.526709 v 53.1459 53.1459 h -15.90775 -15.90776 z m 249.221461,-12.9421 v -66.23768 h 14.27183 14.27186 l 23.50906,38.79678 c 12.93,21.3382 24.19447,38.8375 25.03217,38.8873 0.8377,0.05 12.12272,-17.4089 25.07778,-38.7969 l 23.55469,-38.88718 h 14.02878 14.02879 v 66.10828 66.1083 H 431.19457 416.6815 l -0.73186,-39.5018 -0.73189,-39.5019 -18.55904,31.6958 c -17.41237,29.7373 -19.06476,31.6975 -26.74412,31.7243 -7.54866,0.027 -9.61003,-2.1889 -26.51292,-28.4938 l -18.32785,-28.5226 -1.32564,35.6518 -1.32565,35.6519 -15.24493,0.7775 -15.24494,0.7774 z m 182.93917,-0.1294 v -66.10828 h 51.70019 51.7002 v 11.59088 11.5909 l -35.12963,0.7234 -35.12961,0.7234 -0.80138,13.6105 -0.80138,13.6106 h 32.09933 32.09932 l -0.80808,12.3142 -0.8081,12.3143 -31.15268,0.7304 -31.15268,0.7303 v 14.1765 14.1764 h 37.1181 37.11808 v 12.9623 12.9625 h -53.02584 -53.02584 z m 129.25049,64.6267 c -1.09366,-1.0863 -1.98847,-31.0444 -1.98847,-66.5736 v -64.59842 l 44.40915,0.89006 c 39.38443,0.78933 45.62493,1.52383 55.15459,6.49172 13.32841,6.94824 26.08427,19.49164 31.80086,31.27124 5.96318,12.2877 5.94325,40.3533 -0.0386,54.5076 -5.5414,13.1119 -23.47007,29.3612 -37.66511,34.1371 -11.23922,3.7814 -88.47932,7.0457 -91.67238,3.8743 z m 79.48398,-29.5344 c 14.47448,-6.4249 21.90505,-18.189 21.91801,-34.7005 0.0212,-28.3369 -15.0777,-40.5753 -50.06277,-40.5753 h -21.51219 v 40.1835 40.1835 l 19.22187,-0.057 c 13.1901,-0.039 22.74056,-1.6189 30.43508,-5.0343 z m 236.68244,-34.9629 v -66.23768 h 14.07654 14.07626 l 23.7046,38.82008 c 13.0375,21.3511 24.4229,38.8503 25.301,38.8872 0.8782,0.037 12.09046,-17.4321 24.91636,-38.8201 l 23.3202,-38.88718 h 14.19 14.1899 v 66.10828 66.1083 h -14.5821 -14.582 v -37.591 c 0,-20.6751 -0.8949,-37.5498 -1.9886,-37.4994 -1.0936,0.05 -9.7938,13.1748 -19.3337,29.1654 -16.6893,27.9738 -17.6852,29.0739 -26.32356,29.0739 -8.5528,0 -9.8028,-1.3092 -26.406,-27.6584 -9.5855,-15.2121 -18.2701,-28.4815 -19.2988,-29.4874 -1.0287,-1.006 -1.6229,14.9401 -1.3203,35.4358 l 0.5501,37.2648 -15.24495,0.7775 -15.24495,0.7774 z m 182.93906,-0.1294 v -66.10828 h 51.8456 51.8454 l -0.808,11.96568 -0.8082,11.9656 -35.1296,-0.427 -35.1296,-0.4271 v 14.3039 14.304 l 31.1526,0.7304 31.1527,0.7304 v 10.3698 c 0,12.8927 -1.9865,13.6558 -36.4552,14.0003 l -25.8501,0.2585 v 14.2587 14.2586 h 37.1181 37.1181 v 12.9624 12.9624 h -53.0258 -53.026 z M 591.18569,901.34031 c -17.76242,-2.55268 -35.30138,-10.91398 -42.29456,-20.16292 l -6.08291,-8.04508 H 392.47452 242.14081 l 13.09649,-43.42406 c 7.20306,-23.88323 15.91804,-52.75698 19.36663,-64.1639 22.11928,-73.16396 51.79554,-172.71895 51.79554,-173.75856 0,-0.67863 1.69372,-1.23389 3.76384,-1.23389 2.19958,0 5.64073,-5.65669 8.27978,-13.61053 2.48376,-7.48579 5.6116,-14.77713 6.95073,-16.203 1.33915,-1.42586 9.74444,-4.3424 18.67843,-6.48121 l 16.24365,-3.88871 5.72133,-20.73985 5.7213,-20.73985 28.96302,0.37505 c 19.48183,0.25226 37.09485,2.25626 53.80406,6.12177 l 24.84105,5.74672 7.95595,-7.77947 c 6.86928,-6.7169 7.61955,-8.76621 5.49305,-15.00421 -1.84024,-5.3982 -5.10469,-7.94629 -12.91232,-10.07876 -10.06522,-2.7491 -10.47884,-3.29763 -11.25001,-14.9188 l -0.80062,-12.06478 11.22807,-2.17118 c 9.40173,-1.81805 11.56883,-3.41722 13.32324,-9.83164 1.71485,-6.26989 0.90491,-8.87523 -4.46205,-14.35285 -7.91074,-8.07389 -7.98582,-9.27079 -1.25854,-20.05971 5.20186,-8.34255 5.40943,-8.41262 14.23452,-4.80708 8.42817,3.44342 9.36737,3.28563 15.94554,-2.67868 5.99449,-5.43511 6.55776,-7.15021 3.95546,-12.04405 -1.66891,-3.13853 -3.28611,-6.01341 -3.5938,-6.38859 -0.30771,-0.37518 -5.21315,1.21917 -10.901,3.54299 -7.39466,3.02114 -14.54443,3.79557 -25.09071,2.71772 l -14.74916,-1.5074 -8.27302,13.51932 c -13.39208,21.88456 -17.92154,38.8623 -17.92154,67.17483 v 25.13828 l -11.93081,-1.52304 c -6.56196,-0.83768 -12.369,-1.88437 -12.90456,-2.32599 -3.02953,-2.49818 -3.25836,-27.26023 -0.41172,-44.55075 3.98314,-24.19365 10.286,-41.33331 22.48308,-61.13924 8.8203,-14.32266 9.05865,-15.38267 6.38536,-28.39867 -2.64941,-12.89984 -5.1386,-15.89971 -54.2105,-65.33274 l -51.43355,-51.81208 -12.31926,12.95651 c -31.01978,32.62441 -60.05636,86.43298 -73.04713,135.3658 -18.78459,70.75681 -10.40762,156.35206 21.31568,217.80154 l 7.8892,15.28176 -11.69601,38.73175 c -6.4328,21.30246 -14.28704,47.8062 -17.45386,58.89719 -3.22082,11.28012 -7.02571,19.76489 -8.63533,19.25638 -2.82601,-0.89283 -34.74723,-43.4696 -36.54544,-48.7446 -0.5814,-1.70547 -11.00618,-0.25226 -28.42915,3.96302 -15.13111,3.66079 -29.108,6.65599 -31.05977,6.65599 -4.61066,0 -40.7334,-71.24264 -40.7334,-80.33596 0,-1.15614 10.83942,-9.99372 24.0876,-19.63908 21.59854,-15.72482 23.93385,-18.22972 22.60005,-24.24112 -0.81817,-3.68726 -3.49985,-17.37198 -5.95933,-30.41044 l -4.47174,-23.70633 -27.3932,-5.94538 c -15.06629,-3.26998 -28.89117,-6.85063 -30.72193,-7.95702 -2.45253,-1.4821 -3.32872,-13.23923 -3.32872,-44.66606 0,-23.45996 0.68313,-43.32243 1.51805,-44.13882 0.83491,-0.81642 14.3638,-4.32338 30.06414,-7.79326 15.70034,-3.46988 29.13139,-6.8812 29.84676,-7.58069 0.71537,-0.69951 3.7098,-11.58083 6.65423,-24.18069 2.94445,-12.59988 5.94811,-25.41762 6.67474,-28.48388 1.07948,-4.55512 -3.1081,-8.99139 -22.8903,-24.24988 -20.37716,-15.71741 -23.94361,-19.55599 -22.52016,-24.23853 2.33927,-7.695 32.27151,-66.71226 36.76688,-72.493 3.51243,-4.5168 4.89349,-4.39597 33.69111,2.94747 29.67037,7.56597 30.07228,7.5963 33.69293,2.54172 2.01544,-2.81357 10.87542,-13.88056 19.68888,-24.59329 l 16.02443,-19.47769 -12.73763,-25.31407 c -7.295,-14.49765 -11.88654,-26.66069 -10.74576,-28.46556 2.48468,-3.93112 52.07207,-44.21895 54.4259,-44.21895 0.94713,0 12.7743,6.92955 26.28264,15.39899 21.72553,13.62144 25.29972,15.06969 30.96367,12.54627 7.72847,-3.44321 7.71418,-2.99635 1.10047,-34.426473 -2.91642,-13.85963 -5.30258,-26.06151 -5.30258,-27.11529 0,-3.8242 76.06088,-36.40048 84.98982,-36.40048 1.08328,0 9.99009,10.53301 19.79285,23.40671 12.64123,16.60136 19.07825,23.03271 22.13974,22.12031 13.79259,-4.11041 37.32895,-9.38092 48.17433,-10.78768 l 12.52648,-1.62483 6.10918,-26.91291 c 3.36004,-14.80211 6.89034,-28.1488195 7.8451,-29.6593995 2.29594,-3.63251003 63.42517,-6.11692 81.8973,-3.32845 l 14.36868,2.169 6.11523,26.7141795 c 3.36338,14.69278 6.72573,27.68007 7.47191,28.8606 0.74614,1.18054 6.88211,2.95665 13.63546,3.94691 6.75336,0.99027 20.72335,3.96833 31.04439,6.61794 10.32109,2.6496 19.6031,4.31133 20.62673,3.69271 1.02362,-0.61859 9.327,-11.04506 18.45189,-23.16991 9.12489,-12.12485 18.04381,-22.04518 19.81966,-22.04518 6.40105,0 77.01026,29.85581 82.99575,35.09311 0.48782,0.42699 -1.60005,12.70065 -4.63976,27.27477 -6.77112,32.463143 -6.82969,30.007343 0.83148,34.915763 6.12529,3.92429 7.25558,3.49809 30.78023,-11.60638 13.43171,-8.62418 25.18562,-15.66987 26.11965,-15.65711 2.53894,0.0347 33.93546,24.22969 47.11166,36.3055 l 11.5227,10.56025 -13.2972,25.90984 -13.297,25.90982 10.1716,12.21714 c 5.5945,6.7194 14.5015,17.57417 19.793,24.12167 l 9.621,11.90453 29.57116,-7.54069 c 28.3606,-7.23196 29.7204,-7.34787 33.2134,-2.83086 4.7488,6.14122 34.8589,65.28479 36.8936,72.46806 1.3031,4.60007 -2.5211,8.72784 -22.5662,24.3585 -20.4802,15.96971 -23.9059,19.71267 -22.6219,24.71527 0.8322,3.24247 3.9897,16.41251 7.0163,29.2667 l 5.5031,23.37129 25.6524,5.5532 c 14.1088,3.05425 27.6762,6.10545 30.1496,6.78045 2.9363,0.80122 5.0857,5.06355 6.1924,12.27863 2.094,13.65512 0.5875,75.76053 -1.8967,78.17934 -0.9967,0.97054 -14.1023,4.60468 -29.1235,8.07591 -15.0214,3.4712 -28.2063,7.18637 -29.3002,8.25592 -1.0936,1.06952 -3.7067,11.23698 -5.8068,22.59435 -2.1001,11.35737 -4.6181,24.26655 -5.5951,28.68707 -1.7098,7.73505 -0.8614,8.69425 22.5652,25.50739 28.2053,20.24294 27.6018,16.87612 9.7873,54.59964 -15.1697,32.1234 -22.9249,45.36901 -26.5608,45.36507 -1.6981,-0.002 -15.4914,-2.94182 -30.6519,-6.53326 -15.16046,-3.59141 -27.70266,-6.2148 -27.87146,-5.82971 -0.1697,0.38509 -7.1811,10.78806 -15.5819,23.11778 -14.3628,21.07993 -22.2231,30.20175 -24.0041,27.85706 -1.7273,-2.27431 -33.56589,-110.65566 -33.56589,-114.26171 0,-2.14268 4.76948,-15.05668 10.59834,-28.69775 5.82911,-13.64108 13.86259,-37.44908 17.85215,-52.9067 6.5599,-25.41611 7.2575,-32.56891 7.2916,-74.7694 0.035,-42.70917 -0.5856,-49.00285 -7.3146,-74.24963 C 920.90092,333.77426 893.62706,286.58221 846.48842,239.80971 809.59224,203.20015 764.14236,175.72487 712.61715,158.88217 676.005,146.91432 644.92087,142.05114 605.10067,142.061 c -40.09499,0.011 -71.54644,4.95218 -109.0185,17.13102 -21.64086,7.03353 -67.39169,27.83708 -73.8928,33.60011 -0.54022,0.47892 7.86568,11.71582 18.67979,24.97091 10.81412,13.25512 31.2498,38.79269 45.41264,56.75019 21.8446,27.69747 27.31185,33.10738 36.04336,35.66538 13.21141,3.87044 28.53094,20.26249 31.00932,33.18028 1.03114,5.37457 0.65967,14.22348 -0.8255,19.66425 -2.43282,8.91246 -2.2361,9.74827 1.98603,8.43795 3.16553,-0.98242 6.74416,1.11674 11.02776,6.46877 5.8529,7.31274 6.97986,7.70552 14.62787,5.09857 6.4609,-2.20233 8.79484,-4.92692 10.59447,-12.36781 2.22953,-9.21821 2.70775,-9.54326 14.04003,-9.54326 11.33229,0 11.8105,0.32505 14.04003,9.54326 1.79417,7.41835 4.1381,10.16703 10.52694,12.3448 7.26794,2.4774 9.02309,2.04813 15.16983,-3.71018 8.34492,-7.81757 9.58973,-7.90759 20.38104,-1.47355 8.07902,4.81692 8.29973,5.39446 5.48669,14.35696 -2.59333,8.26242 -2.2777,9.97693 2.7399,14.88322 5.00068,4.88976 6.78773,5.20991 15.12127,2.70902 9.14834,-2.74542 9.65934,-2.53543 15.98668,6.56955 l 6.53636,9.40565 -8.21993,8.29265 c -7.14566,7.2089 -7.89412,9.24818 -5.72729,15.60447 1.99939,5.86515 4.68114,7.73505 13.55397,9.45081 l 11.06137,2.13897 v 12.7792 12.77919 l -10.31262,1.6125 c -16.94082,2.64884 -19.89912,15.60453 -6.30921,27.6304 4.82455,4.26934 6.26771,4.23484 28.74694,-0.68726 31.90091,-6.98516 82.72609,-9.94154 84.35505,-4.90676 0.64632,1.99841 3.64392,11.92535 6.66084,22.05987 l 5.4852,18.42642 17.93466,3.73445 17.9344,3.73447 4.19941,15.43011 c 2.55638,9.39331 5.78139,15.73052 8.24344,16.198 2.57171,0.48834 6.52191,8.98253 10.85066,23.33232 3.74361,12.41042 19.3706,63.9793 34.72682,114.59748 15.35635,50.61819 31.32875,103.69923 35.49425,117.95787 l 7.5733,25.92481 -149.40478,0.66956 -149.40473,0.66959 -7.88737,8.78395 c -13.24244,14.74777 -43.11593,23.1215 -69.14257,19.38115 z M 319.28507,832.96465 c 51.25003,-9.39039 124.17862,-9.4216 168.93132,-0.0724 33.58747,7.01673 36.57948,6.78331 13.16836,-1.02736 -36.73779,-12.2569 -59.41779,-16.05662 -104.93987,-17.58118 -37.50618,-1.2561 -87.34985,1.6378 -102.30215,5.93966 -3.83791,1.10417 -10.16394,13.25925 -10.16394,19.52932 0,1.17781 2.93634,1.04982 6.5252,-0.2844 3.58887,-1.33423 16.54035,-4.26088 28.78108,-6.5037 z m 383.59788,3.95091 c 45.15594,-12.09527 125.57225,-14.52311 177.63649,-5.36297 16.76936,2.9504 33.94343,6.09807 38.16428,6.9948 7.36423,1.56454 7.59774,1.32715 5.77789,-5.87277 -1.04331,-4.12677 -2.95299,-8.56032 -4.24414,-9.85235 -7.89293,-7.89881 -103.05179,-12.18718 -144.71096,-6.52148 -23.95565,3.25804 -64.58559,13.02644 -77.92614,18.7353 -10.70792,4.58225 -8.15975,5.48545 5.30258,1.87947 z M 549.49624,825.62881 c -5.22825,-6.1599 -54.23475,-29.69078 -75.95006,-36.46805 -34.14218,-10.65564 -63.99864,-14.54272 -111.70156,-14.54272 -32.95393,0 -43.39803,-0.77992 -43.39485,-3.24061 0.002,-1.78233 6.62331,-26.57292 14.71333,-55.09021 8.09001,-28.51729 20.06765,-71.4192 26.61701,-95.33755 6.54932,-23.91836 12.58332,-45.2091 13.40891,-47.31277 1.88506,-4.80346 -6.81807,-5.19425 -13.01209,-0.58425 -2.81628,2.09608 -15.17155,42.07565 -34.98216,113.19656 -16.84544,60.47578 -30.32593,110.2474 -29.95663,110.60357 0.3693,0.35621 6.04034,-0.43758 12.60228,-1.76394 6.56194,-1.3264 31.61666,-3.12838 55.67713,-4.00443 63.73333,-2.32053 113.72959,6.28952 165.70577,28.53679 24.87986,10.64928 23.9883,10.38508 20.27292,6.00761 z m 38.05543,-218.45978 c -20.44862,-34.11894 -79.22677,-65.53177 -137.39614,-73.42867 -32.19931,-4.37129 -35.94477,-3.95912 -39.19949,4.3138 -3.64779,9.27201 -55.39236,202.91705 -55.39236,207.29622 0,2.48712 6.27788,3.34552 24.52445,3.35327 68.46793,0.029 141.28208,24.06903 192.22652,63.46445 l 20.53967,15.88335 0.69289,-104.86131 0.6929,-104.86134 z m 110.0287,205.12623 c 40.83322,-14.43916 71.92944,-19.83517 121.95927,-21.1631 32.67858,-0.86736 53.45358,-0.14466 70.25933,2.44384 13.12381,2.02145 24.27327,3.33286 24.77655,2.91426 0.97465,-0.81075 -56.12971,-206.18743 -60.34133,-217.01935 -2.12737,-5.47127 -14.71152,-11.9153 -17.65256,-9.03948 -0.69516,0.67966 42.00732,154.96042 54.18364,195.76104 l 2.51427,8.42557 -44.16098,0.0513 c -48.61308,0.0565 -71.20756,2.43693 -101.16366,10.65793 -21.54643,5.91307 -74.12701,29.83751 -84.84133,38.60325 l -6.62823,5.42279 10.60516,-5.01331 c 5.83285,-2.75731 19.55328,-8.17746 30.48987,-12.04479 z m -49.04891,-8.1653 c 28.83925,-21.27172 74.54646,-40.36802 117.27985,-48.99903 21.43715,-4.32978 82.43602,-9.61215 86.01577,-7.44876 4.01512,2.42637 2.25048,-6.8747 -9.55839,-50.37502 -6.45561,-23.78171 -19.19428,-71.09028 -28.30783,-105.13018 l -16.57011,-61.89069 -22.23737,1.76432 c -60.18968,4.77543 -117.5825,30.80775 -146.33415,66.37448 L 618.0416,611.75736 V 719.32872 826.9001 l 7.29106,-5.51833 c 4.01007,-3.03506 14.44954,-10.79838 23.1988,-17.25181 z M 592.34175,571.84814 c -2.7377,-4.58358 -9.11122,-10.65961 -14.16333,-13.50224 -9.02631,-5.0787 -9.12066,-5.08027 -5.4363,-0.0917 3.67406,4.97462 21.88282,21.8132 23.67038,21.88921 0.49877,0.0207 -1.33306,-3.71165 -4.07075,-8.29526 z m 38.95631,-7.59159 c 0,-2.68459 -8.70779,0.47217 -11.2274,4.07017 -1.07133,1.52988 -1.96614,4.4432 -1.98847,6.47407 -0.0278,2.54257 2.02363,1.7963 6.58764,-2.39626 3.64553,-3.34884 6.62823,-7.0154 6.62823,-8.14798 z m 2.65129,-30.35095 c 16.05538,-7.21342 31.03656,-24.19124 35.96046,-40.7532 5.35204,-18.00193 4.04789,-32.47904 -4.4192,-49.05666 -11.24543,-22.01731 -37.02411,-37.60997 -62.17898,-37.60997 -20.22808,0 -44.15965,13.49864 -55.7441,31.44257 -10.50419,16.27059 -13.21954,34.73114 -7.81153,53.10729 5.9094,20.07996 28.92045,43.26988 46.80914,47.17305 14.30118,3.12041 35.05648,1.23558 47.38421,-4.30308 z m -46.39761,-11.33251 c -14.02743,-4.86306 -22.03643,-12.16911 -29.33902,-26.76399 -5.5706,-11.13333 -6.84163,-16.75627 -5.81019,-25.70401 1.87443,-16.26116 9.97389,-29.97979 23.02008,-38.99075 9.85544,-6.80712 13.51871,-7.77745 29.36253,-7.77745 15.84383,0 19.5071,0.97033 29.36253,7.77745 14.98354,10.34911 22.36511,24.54716 22.23917,42.77592 -0.2479,35.87607 -34.96081,60.4264 -68.8351,48.68283 z m 34.73193,-31.57245 c 9.91979,-9.69975 11.39302,-18.05508 5.2363,-29.69678 -12.44519,-23.5325 -49.24775,-13.06052 -49.24775,14.01315 0,10.07736 15.60672,24.49806 26.51292,24.49806 6.11357,0 11.00286,-2.46285 17.49853,-8.81443 z M 524.04123,366.42015 c 7.44509,-7.27993 8.17272,-14.07814 2.62886,-24.56099 -4.21829,-7.97628 -8.87246,-10.55533 -19.04825,-10.55533 -15.61132,0 -25.45334,14.44829 -19.46752,28.57873 4.03941,9.53564 9.16347,12.71856 20.64199,12.82212 5.81722,0.0526 10.91212,-2.04783 15.24492,-6.28453 z m -64.6231,-70.51662 c 5.93476,-5.25175 6.15461,-10.87984 0.72126,-18.46494 -4.88729,-6.82283 -13.43683,-7.44587 -20.18843,-1.4713 -6.02964,5.33573 -6.21715,13.26607 -0.46066,19.4858 5.45676,5.8959 13.56701,6.07923 19.92783,0.45044 z m -49.86052,-52.93221 c 4.11913,-3.16823 6.98578,-7.95552 6.98578,-11.66617 0,-14.72822 -21.94898,-22.6146 -30.33953,-10.90115 -5.81639,8.11988 -5.1434,14.22012 2.38047,21.57706 7.93983,7.76373 11.9224,7.95177 20.97328,0.99026 z m -83.0605,312.78314 c -1.63095,-4.16702 -2.42925,-8.94251 -1.77398,-10.61222 0.65527,-1.66971 9.09573,-7.00997 18.75662,-11.86722 l 17.56523,-8.83138 -1.68786,-10.36993 c -0.92835,-5.70345 -2.58615,-11.30997 -3.68403,-12.45896 -1.09787,-1.14899 -10.81801,-4.08941 -21.60028,-6.53427 l -19.60416,-4.44523 -0.78393,-15.94676 -0.78396,-15.94674 20.66865,-4.40177 c 11.36772,-2.42096 21.41087,-5.13728 22.31809,-6.03625 0.90723,-0.89898 2.4196,-6.63507 3.36089,-12.74689 1.61284,-10.47243 1.23664,-11.36821 -6.53239,-15.55489 -4.53407,-2.44335 -13.4508,-7.59249 -19.81496,-11.44248 l -11.57117,-6.99998 4.82132,-13.73986 4.82133,-13.73987 23.56357,0.77691 23.56357,0.77692 4.20474,-9.95344 4.20471,-9.95346 -14.14228,-15.45202 c -7.77826,-8.49863 -14.14443,-16.03908 -14.14706,-16.75658 -0.002,-0.71749 3.97097,-6.77247 8.83024,-13.45552 l 8.83499,-12.15101 13.91892,6.30569 c 17.40512,7.88504 21.70433,11.22057 42.4687,32.94924 l 16.75089,17.52886 -6.67866,9.86825 c -22.52581,33.28374 -33.75533,68.38599 -33.75533,105.51548 v 23.87673 l -12.06179,1.32936 c -6.63399,0.73117 -12.63399,1.88892 -13.33339,2.57278 -0.69939,0.6839 -3.95727,10.4098 -7.23973,21.61315 -6.58788,22.48506 -3.30811,19.91776 -33.15141,25.94983 -3.73928,0.75579 -7.53869,4.49209 -9.73649,9.57471 l -3.60421,8.33521 z m 551.80762,0.6989 c -3.51023,-8.74495 -5.84282,-10.07051 -23.89286,-13.57794 l -14.80534,-2.8769 -5.85329,-20.01794 c -3.2194,-11.00985 -6.61174,-21.21775 -7.53867,-22.6842 -0.92694,-1.46645 -6.87193,-2.66627 -13.21141,-2.66627 -10.08921,0 -11.35892,-0.62492 -10.18515,-5.01358 2.54442,-9.5136 -4.50457,-57.43409 -11.48676,-78.0916 -3.85102,-11.39359 -12.22567,-29.00048 -18.61039,-39.1264 -8.96677,-14.22112 -10.93003,-19.21009 -8.62697,-21.92351 2.46579,-2.90519 3.73551,-2.6581 7.34056,1.42855 4.20589,4.76773 4.8714,4.78596 18.94096,0.51892 12.53829,-3.80257 14.69993,-5.41088 15.42126,-11.47433 0.93466,-7.85752 1.4322,-8.12685 8.33777,-4.51314 4.05674,2.12298 6.58695,0.29088 15.44992,-11.18767 8.44891,-10.94213 10.08659,-14.74369 8.07398,-18.74172 -1.38847,-2.75843 1.68564,-0.48709 6.8313,5.04739 l 9.35591,10.06271 -15.59459,17.05922 -15.59472,17.05923 5.21544,9.99647 5.21555,9.99645 22.75161,-0.82368 22.75123,-0.82366 4.95053,14.10032 c 5.59385,15.93347 6.63766,14.30503 -16.74718,26.13202 -8.27846,4.18689 -15.58437,8.51359 -16.23493,9.6149 -0.65069,1.10131 -0.43936,7.21668 0.46976,13.58972 l 1.65262,11.58736 21.99376,4.83677 21.99402,4.83676 -0.78364,15.92881 -0.78351,15.92883 -19.60398,4.44523 c -10.78225,2.44486 -20.5273,5.38528 -21.65571,6.53427 -1.12842,1.14899 -2.43888,6.70262 -2.91213,12.34147 -0.85291,10.16172 -0.70825,10.33654 16.35318,19.75904 18.14013,10.01831 20.2685,13.06771 16.25948,23.29605 l -2.47676,6.31954 z M 741.22329,493.54342 c -2.49346,-3.72106 -5.08996,-11.70684 -5.77005,-17.74621 -0.9992,-8.87275 0.12336,-12.9281 5.84643,-21.1257 8.69513,-12.45431 7.83249,-19.26628 -5.81939,-45.94941 -13.12718,-25.65763 -37.95761,-49.71601 -64.51973,-62.51358 -27.50298,-13.25089 -35.54887,-14.55932 -43.66766,-7.10133 -4.23128,3.88691 -10.80012,6.31478 -19.22757,7.10659 -10.92001,1.02601 -13.99832,0.21725 -20.95294,-5.5049 -4.48382,-3.68917 -9.67055,-10.29148 -11.52608,-14.67178 -6.54535,-15.45131 5.30216,-36.09537 23.24157,-40.498 11.14442,-2.73504 26.96881,3.65921 32.74454,13.23122 4.04839,6.70929 7.98981,9.30361 17.71136,11.65805 6.87729,1.66559 22.59046,7.77581 34.9182,13.57824 40.25619,18.94782 74.21184,59.25411 86.5884,102.78272 3.6752,12.92603 6.20292,17.13497 12.07215,20.10272 13.39296,6.77215 19.34381,26.21181 12.51201,40.87324 -2.45383,5.26601 -5.48907,6.62906 -17.89628,8.03652 -8.21765,0.9322 -18.7168,2.32769 -23.33127,3.10104 -6.95989,1.16644 -9.16301,0.25277 -12.92369,-5.35943 z m 31.74317,-7.08419 c 8.76652,-3.90568 10.93239,-11.27446 5.63696,-19.17709 -5.44246,-8.12206 -18.0914,-8.6594 -23.57685,-1.00161 -4.71054,6.57603 -2.93431,14.29514 4.45385,19.3552 6.64701,4.55243 5.30079,4.47021 13.48604,0.8235 z M 614.80038,327.26812 c 11.04302,-7.56328 5.03796,-24.48158 -8.68959,-24.48158 -13.3978,0 -18.92596,13.89987 -9.27952,23.33233 6.38144,6.23989 10.18143,6.48293 17.96911,1.14925 z m 129.84043,13.98492 c -5.65093,-2.01811 -7.29109,-4.2843 -7.29109,-10.07404 0,-9.16204 -7.96857,-14.39978 -15.72892,-10.33869 -4.23966,2.21868 -6.05788,1.39866 -10.53703,-4.75224 -5.32035,-7.30595 -5.32645,-7.51039 -0.35674,-11.90818 6.45824,-5.71493 3.48693,-14.94466 -5.4771,-17.01387 -5.1779,-1.19522 -6.34391,-3.11062 -6.34391,-10.42116 0,-7.14145 1.13544,-9.11529 5.60214,-9.73871 3.08121,-0.43003 7.00363,-3.78951 8.71656,-7.46547 2.55962,-5.49338 2.35128,-7.50802 -1.17053,-11.31316 -3.94871,-4.26649 -3.93251,-5.1551 0.20522,-11.33002 5.11226,-7.62916 5.10803,-7.62774 11.94718,-4.04868 7.97105,4.17135 16.48451,-2.12233 14.73569,-10.89364 -1.21863,-6.1123 -0.37593,-7.16229 7.02357,-8.75142 6.84824,-1.47077 9.10246,-0.7834 12.15028,3.70503 4.80336,7.07369 15.42363,7.26948 17.67747,0.32588 1.77536,-5.46996 4.21798,-6.09311 13.91929,-3.55095 4.35977,1.14248 5.96542,3.48959 5.96542,8.72085 0,9.25528 5.79148,13.82707 15.13617,11.94875 5.77541,-1.16084 8.39409,-0.13974 11.92874,4.65176 4.30046,5.82906 4.27579,6.36339 -0.48995,10.58059 -4.09225,3.62136 -4.49422,5.56761 -2.17721,10.54004 1.56291,3.3542 5.36247,6.45041 8.44381,6.88044 4.48251,0.62565 5.6022,2.59515 5.6022,9.85558 0,7.43396 -1.0772,9.22329 -5.96119,9.90154 -7.97641,1.10776 -10.81465,11.94853 -4.82318,18.42215 4.15979,4.4946 4.0373,5.22431 -2.03354,12.12555 -5.41928,6.16058 -7.11527,6.81088 -10.53229,4.03796 -5.99483,-4.86473 -15.09356,1.35945 -15.09356,10.32489 0,5.32773 -1.8029,7.51475 -7.91062,9.59675 -6.57026,2.23949 -8.47994,1.91763 -11.26808,-1.89913 -1.84664,-2.52759 -6.11009,-5.28507 -9.47453,-6.12773 -4.73048,-1.1848 -6.78046,-0.10917 -9.04228,4.7452 -3.2427,6.95894 -3.09629,6.92313 -13.34187,3.26413 z m 39.33517,-37.55524 c 26.32052,-16.86329 13.94022,-57.94585 -17.46203,-57.94585 -31.06756,0 -43.62318,40.61357 -17.98425,58.17347 7.73506,5.29765 27.01581,5.17383 35.44628,-0.22762 z m -112.90853,-11.29 c -41.86958,-15.04948 -89.28683,-15.44076 -130.02145,-1.07292 -10.18517,3.59253 -19.72139,5.80493 -21.19158,4.91646 -1.4702,-0.88847 -8.67991,-9.37426 -16.0216,-18.8573 -12.1005,-15.62981 -12.92776,-17.54272 -8.84798,-20.45975 2.47534,-1.76984 5.40305,-3.55163 6.5061,-3.95953 1.10303,-0.40787 0.87847,-7.69165 -0.49901,-16.18618 -4.04479,-24.94267 -3.03721,-27.46883 13.08569,-32.80864 l 14.01855,-4.64288 11.99174,18.29338 11.99174,18.29335 12.43347,-1.81956 c 6.83841,-1.00075 13.17155,-2.26339 14.07367,-2.8059 0.9021,-0.54247 2.44185,-5.97033 3.4216,-12.06185 0.97976,-6.09152 2.97207,-15.4503 4.4274,-20.7973 l 2.64599,-9.7218 h 15.70336 15.70337 l 2.5916,9.7218 c 1.4254,5.347 3.38581,14.05506 4.35648,19.35124 2.2328,12.18256 5.32623,14.61049 19.80348,15.54307 12.44874,0.80193 12.24297,1.0053 31.39302,-31.02861 2.61778,-4.37896 30.54524,4.68187 31.66343,10.27295 0.43201,2.15978 -2.95411,9.80892 -7.52452,16.99814 -6.81852,10.7254 -7.79215,14.01715 -5.42511,18.3419 3.93628,7.19185 3.74736,7.7236 -3.08063,8.67182 -5.38272,0.74753 -6.04389,2.46322 -6.76892,17.56466 -0.71566,14.90716 -0.13628,17.23829 5.30259,21.33031 8.52269,6.41229 2.16225,5.51179 -21.73248,-3.07686 z"
     id="path1" />
</svg>
